<svg xmlns="http://www.w3.org/2000/svg" version="1.1" xmlns:xlink="http://www.w3.org/1999/xlink" width="512" height="512" x="0" y="0" viewBox="0 0 64 64" style="enable-background:new 0 0 512 512" xml:space="preserve" class=""><g><linearGradient id="a" x1="7.139" x2="56.861" y1="32" y2="32" gradientUnits="userSpaceOnUse"><stop offset="0" stop-color="#00c0ff"></stop><stop offset="1" stop-color="#5558ff"></stop></linearGradient><path fill="url(#a)" d="M24.997 20.457c4.855-.121 4.853-9.987 0-10.108-4.854.122-4.853 9.988 0 10.108zm0-8.108c2.19.225 2.188 5.885 0 6.108-2.19-.225-2.188-5.885 0-6.108zm-7.057 7.108v-3.06H15.63v3.06a1 1 0 0 1-2 0V11.35a1 1 0 0 1 2 0v3.047h2.309V11.35a1 1 0 1 1 2 0v8.108a1 1 0 0 1-2 0zm11.34-9.108h5.606a1 1 0 1 1 0 2h-1.803v7.108a1 1 0 0 1-2 0V12.35h-1.804a1 1 0 0 1 0-2zm14.324 9.101v-8.108a1 1 0 0 1 2 0v7.108h3.511a1 1 0 0 1 0 2h-4.51a1 1 0 0 1-1-1zm-7.17.16v-8.108a1 1 0 0 1 1-1h3.886a1 1 0 0 1 0 2h-2.886v2.207h2.886a1 1 0 0 1 0 2h-2.886v1.901h2.805a1 1 0 0 1 0 2h-3.722a.138.138 0 0 0-.082 0 1 1 0 0 1-1-1zM25.774 33.144v-2.42a1 1 0 0 1 2 0v2.42a1 1 0 1 1-2 0zm5.1 0v-2.42a1 1 0 0 1 2 0v2.42a1 1 0 1 1-2 0zm5.1 0v-2.42a1 1 0 0 1 2 0v2.42a1 1 0 1 1-2 0zm-10.2 6.766v-2.42a1 1 0 1 1 2 0v2.42a1 1 0 0 1-2 0zm-8.734 9.903v1.21a1 1 0 1 1-2 0v-1.21a1 1 0 1 1 2 0zm13.834-9.903v-2.42a1 1 0 1 1 2 0v2.42a1 1 0 0 1-2 0zm5.1 0v-2.42a1 1 0 1 1 2 0v2.42a1 1 0 0 1-2 0zm11.331 14.967v-2.42a1 1 0 0 1 2 0v2.42a1 1 0 1 1-2 0zm5.902-13.873-8.77-6.61v-2.4h3.402a8.27 8.27 0 0 0 8.26-8.261V12.262A8.27 8.27 0 0 0 47.838 4H15.4a8.27 8.27 0 0 0-8.262 8.262V23.23a8.27 8.27 0 0 0 8.262 8.261h3.909v3.097a1.505 1.505 0 0 0-.603.353L8.341 45.246a1.536 1.536 0 0 0 1.075 2.61h1.353v6.125a1 1 0 0 0 1 1h7.54v4.018a1 1 0 0 0 1 1h17.345c3.54.003 11.901-.002 15.518 0a1 1 0 0 0 1-1v-9.664h1.689a1 1 0 0 0 1-1 9.225 9.225 0 0 0-3.655-7.33zM15.4 29.491a6.269 6.269 0 0 1-6.262-6.261V12.262A6.269 6.269 0 0 1 15.401 6h32.437a6.268 6.268 0 0 1 6.26 6.262v11.47a6.268 6.268 0 0 1-6.26 6.262h-3.402v-1.59a4.345 4.345 0 0 0-4.34-4.34H23.65a4.345 4.345 0 0 0-4.34 4.34v1.087zm3.909 7.671v8.694h-8.746zm-6.541 15.819v-5.125h6.54v5.125zm8.54-6.652c.018-4.379-.012-13.602 0-17.926a2.342 2.342 0 0 1 2.34-2.339h16.447a2.342 2.342 0 0 1 2.34 2.34v29.595h-3.782V44.257a1 1 0 0 0-1-1H26.092a1 1 0 0 0-1 1V58H21.31zM27.093 58V45.257h9.562V58zm25.08 0h-7.736v-8.664h7.736zm-7.736-10.664V36.898l7.567 5.703a7.222 7.222 0 0 1 2.787 4.734z" opacity="1" data-original="url(#a)" class=""></path></g></svg>